P1
4 8
00000110011001100110011001100
0
0
0
